# xmcd
#
# Track frame offsets: 
#        150
#        9820
#        19690
#        29650
#        39155
#        50542
#        61030
#        71002
#        82182
#        96800
#        108277
#
# Disc length: 1598 seconds
#
# Revision: 0
# Processed by: cddbd v1.4PL0 Copyright (c) Steve Scherf et al.
# Submitted via: ExactAudioCopy v0.90b4
#
DISCID=80063c0b
DTITLE=Jim Stafford - Jim Stafford Plays Harmonica
DYEAR=1900
DGENRE=Country
TTITLE0=Memory
TTITLE1=Wildwood Flower
TTITLE2=Shenandoah
TTITLE3=Cherry Pink
TTITLE4=I'm So Lonesome I Could Cry
TTITLE5=Branson Blues
TTITLE6=Music Of The Night
TTITLE7=Moulon Rouge
TTITLE8=Danny Boy
TTITLE9=Tennessee Waltz
TTITLE10=Moon River
EXTD=
EXTT0=
EXTT1=
EXTT2=
EXTT3=
EXTT4=
EXTT5=
EXTT6=
EXTT7=
EXTT8=
EXTT9=
EXTT10=
PLAYORDER=
